<?xml version="1.0" encoding="utf-8"?>
<!-- Generator: Adobe Illustrator 16.0.0, SVG Export Plug-In . SVG Version: 6.00 Build 0)  -->
<!DOCTYPE svg PUBLIC "-//W3C//DTD SVG 1.1//EN" "http://www.w3.org/Graphics/SVG/1.1/DTD/svg11.dtd">
<svg version="1.1" id="Layer_1" xmlns="http://www.w3.org/2000/svg" xmlns:xlink="http://www.w3.org/1999/xlink" x="0px" y="0px"
	 width="243.75px" height="74px" viewBox="0 0 243.75 74" enable-background="new 0 0 243.75 74" xml:space="preserve">
<path fill="#FFFFFF" d="M10.453,30.12c10.583,0.232,21.055,0,31.758,0.349c3.373,0.698,2.558,3.257,2.093,5.001
	c1.047,0,2.327,0,3.49,0c1.744-0.697,0.93-1.51,0.463-1.745c2.212-0.116,4.071,0,6.4,0c1.046,0.234,1.627,1.862,2.678,2.094
	c1.859,0.232,3.139,0,4.651,0c0.929,0.348,0.115,0.465,0.115,0.931c-5.585,0-11.983,0.232-17.566,0.351
	c0.701,1.628,0.35,5.001-3.373,5.001l-30.125,0.348c9.304-0.93,18.61-1.629,28.032-2.326c1.046-0.93,0.932-1.628-0.23-2.325
	c-5.004-0.582-9.773-0.93-14.776-1.279c-5.699,0.349-11.515,0.698-16.983,1.279c3.025-0.697,6.05-1.279,9.19-1.745
	c-3.607-0.35-6.513-1.278-9.073-1.514c5.466,0.351,11.4,0.465,16.75,0.697c5.351-0.463,9.888-0.463,15.471-0.93
	c0.816-0.813,0.35-1.977-0.579-2.093L10.453,30.12z"/>
<path fill="#FFFFFF" d="M10.453,30.12c10.583,0.232,21.055,0,31.758,0.349c3.373,0.698,2.558,3.257,2.093,5.001
	c1.047,0,2.327,0,3.49,0c1.744-0.697,0.93-1.51,0.463-1.745c2.212-0.116,4.071,0,6.4,0c1.046,0.234,1.627,1.862,2.678,2.094
	c1.859,0.232,3.139,0,4.651,0c0.929,0.348,0.115,0.465,0.115,0.931c-5.585,0-11.983,0.232-17.566,0.351
	c0.701,1.628,0.35,5.001-3.373,5.001l-30.125,0.348c9.304-0.93,18.61-1.629,28.032-2.326c1.046-0.93,0.932-1.628-0.23-2.325
	c-5.004-0.582-9.773-0.93-14.776-1.279c-5.699,0.349-11.515,0.698-16.983,1.279c3.025-0.697,6.05-1.279,9.19-1.745
	c-3.607-0.35-6.513-1.278-9.073-1.514c5.466,0.351,11.4,0.465,16.75,0.697c5.351-0.463,9.888-0.463,15.471-0.93
	c0.816-0.813,0.35-1.977-0.579-2.093L10.453,30.12z"/>
<path fill="#FFFFFF" d="M11.036,42.552l-0.014-0.204c9.597-0.96,19.374-1.685,28.004-2.322c0.472-0.425,0.686-0.795,0.655-1.127
	c-0.03-0.335-0.319-0.662-0.88-1.002c-4.92-0.571-9.588-0.917-14.747-1.277l-0.507,0.032c-5.487,0.337-11.16,0.685-16.457,1.247
	l-0.033-0.201c2.862-0.661,5.627-1.195,8.424-1.628c-1.633-0.2-3.135-0.505-4.481-0.78c-1.354-0.276-2.631-0.537-3.813-0.646
	l0.017-0.203c3.531,0.226,7.275,0.354,10.897,0.479c2.035,0.068,3.958,0.135,5.85,0.218c2.696-0.236,5.139-0.35,7.728-0.468
	c2.435-0.115,4.95-0.232,7.693-0.46c0.331-0.347,0.446-0.792,0.304-1.198c-0.128-0.38-0.455-0.647-0.853-0.696l-28.378-2.093
	l0.008-0.205c4.706,0.104,9.471,0.114,14.076,0.127c5.769,0.015,11.735,0.029,17.683,0.222c1.107,0.228,1.864,0.674,2.266,1.327
	c0.659,1.069,0.276,2.485-0.029,3.624l-0.014,0.051h3.339c0.63-0.255,0.97-0.55,0.982-0.854c0.014-0.33-0.351-0.601-0.543-0.698
	l-0.347-0.172l0.387-0.021c0.671-0.034,1.349-0.052,2.129-0.052c0.669,0,1.322,0.014,2.012,0.027
	c0.72,0.011,1.465,0.025,2.262,0.025c0.578,0.128,1.003,0.611,1.415,1.082c0.407,0.466,0.793,0.906,1.284,1.016
	c0.543,0.066,1.093,0.101,1.678,0.101c0.523,0,1.017-0.028,1.496-0.053c0.468-0.023,0.954-0.05,1.458-0.05l0.035,0.006
	c0.326,0.123,0.473,0.225,0.506,0.358c0.032,0.133-0.06,0.235-0.148,0.336c-0.086,0.099-0.175,0.201-0.175,0.333v0.101H62.1
	c-3.855,0-8.092,0.111-12.19,0.219c-1.786,0.045-3.543,0.091-5.226,0.129c0.355,0.95,0.394,2.409-0.344,3.528
	c-0.444,0.675-1.356,1.476-3.18,1.476L11.036,42.552z M24.055,36.416c5.183,0.36,9.86,0.706,14.792,1.28l0.041,0.013
	c0.634,0.379,0.958,0.761,0.997,1.171c0.037,0.407-0.207,0.84-0.748,1.32l-0.025,0.021l-0.035,0.003
	c-7.929,0.588-16.833,1.248-25.671,2.097L41.161,42c1.372,0,2.411-0.478,3.009-1.384c0.701-1.063,0.668-2.554,0.271-3.476
	l-0.06-0.139l0.151-0.002c1.728-0.036,3.537-0.084,5.373-0.132c4.065-0.106,8.271-0.216,12.103-0.218
	c0.033-0.157,0.137-0.274,0.215-0.363c0.046-0.053,0.11-0.125,0.104-0.152c-0.006-0.021-0.045-0.089-0.361-0.212
	c-0.492,0.001-0.969,0.027-1.43,0.051c-0.482,0.026-0.98,0.055-1.507,0.055c-0.59,0-1.15-0.035-1.71-0.105
	c-0.566-0.126-0.993-0.61-1.403-1.082c-0.408-0.464-0.793-0.905-1.285-1.013c-0.77,0.004-1.52-0.011-2.241-0.024
	c-0.688-0.013-1.341-0.024-2.009-0.024c-0.657,0-1.239,0.01-1.808,0.034c0.205,0.168,0.398,0.417,0.386,0.711
	c-0.017,0.397-0.397,0.749-1.13,1.042l-0.037,0.007h-3.624l0.083-0.309c0.294-1.1,0.666-2.469,0.052-3.464
	c-0.377-0.612-1.069-1.013-2.116-1.23c-5.926-0.191-11.89-0.208-17.658-0.221c-3.427-0.009-6.941-0.017-10.454-0.062l24.766,1.825
	c0.481,0.061,0.872,0.379,1.028,0.833c0.167,0.491,0.024,1.028-0.38,1.435l-0.028,0.027l-0.04,0.002
	c-2.76,0.23-5.291,0.349-7.738,0.463c-2.585,0.12-5.028,0.232-7.732,0.468c-1.904-0.081-3.828-0.147-5.862-0.217
	c-2.855-0.098-5.783-0.201-8.626-0.347c0.511,0.096,1.036,0.203,1.573,0.312c1.552,0.315,3.312,0.676,5.239,0.862l0.831,0.081
	l-0.824,0.123c-2.508,0.372-4.978,0.821-7.508,1.37c4.802-0.466,9.855-0.775,14.758-1.076L24.055,36.416z"/>
<path fill="#FFFFFF" d="M35.46,52.721c-17.722,0-32.139-7.425-32.139-16.555c0-9.189,14.417-16.668,32.139-16.668
	c17.725,0,32.144,7.477,32.144,16.668C67.602,45.296,53.185,52.721,35.46,52.721z M35.46,20.615
	c-17.105,0-31.022,6.978-31.022,15.552c0,8.579,13.917,15.554,31.022,15.554c17.107,0,31.025-6.976,31.025-15.554
	C66.485,27.591,52.567,20.615,35.46,20.615z M35.46,20.035c-17.424,0-31.602,7.238-31.602,16.131c0,2.9,1.526,5.624,4.199,7.975
	c-2.642-2.354-4.153-5.074-4.153-7.975c0-8.868,14.158-16.086,31.558-16.086c17.403,0,31.56,7.218,31.56,16.086
	c0,2.9-1.51,5.621-4.153,7.975c2.67-2.351,4.201-5.074,4.201-7.975C67.068,27.272,52.89,20.035,35.46,20.035z"/>
<path fill="#FFFFFF" d="M35.616,52.201l-0.036-0.095l-0.037,0.095c-12.568-4.743-19.439-10.662-19.347-16.673
	c0.09-5.91,6.963-11.501,19.349-15.741l0.035,0.096l0.032-0.096c12.385,4.239,19.257,9.831,19.349,15.741
	C55.052,41.538,48.183,47.457,35.616,52.201z M35.475,20.073c-7.229,4.803-10.991,9.812-11.176,14.889
	c-0.199,5.414,3.459,10.956,11.176,16.938V20.073z M35.681,20.073v31.825c7.721-5.983,11.375-11.524,11.176-16.939
	C46.67,29.885,42.911,24.876,35.681,20.073z M36.295,20.241c6.961,4.74,10.582,9.686,10.766,14.712
	c0.198,5.397-3.364,10.899-10.882,16.81c12.075-4.664,18.667-10.416,18.577-16.23C54.667,29.832,48.119,24.417,36.295,20.241z
	 M34.861,20.241c-11.827,4.176-18.374,9.591-18.462,15.292c-0.087,5.814,6.5,11.568,18.577,16.23
	c-7.519-5.909-11.077-11.413-10.879-16.81C24.279,29.926,27.899,24.98,34.861,20.241z"/>
<g>
	<path fill="#FFFFFF" d="M90.018,31.284c-0.932,0.349-1.863,0.697-3.141,0.93c-1.163,0.232-1.744,0.347-1.744,0.465
		c-0.93,0.232-1.629,0.582-2.094,0.93c-0.348,0.465-0.582,1.048-0.582,1.745c0,0.812,0.349,1.396,0.815,1.861
		c0.465,0.465,1.163,0.697,1.978,0.697c1.511,0,2.675-0.466,3.488-1.278c0.815-0.816,1.28-1.978,1.28-3.491L90.018,31.284
		L90.018,31.284z M90.134,38.844c-0.698,1.046-1.627,1.862-2.792,2.442c-1.047,0.583-2.327,0.815-3.838,0.815
		c-1.977,0-3.605-0.582-4.651-1.744c-1.048-1.049-1.629-2.677-1.629-4.77c0-1.977,0.583-3.49,1.629-4.537
		c1.163-0.93,2.906-1.628,5.351-2.094c0.581,0,1.396-0.116,2.21-0.232c2.326-0.347,3.489-1.046,3.489-2.094
		c0-0.815-0.232-1.396-0.698-1.746c-0.582-0.347-1.396-0.582-2.559-0.582c-1.165,0-1.979,0.234-2.561,0.699s-0.93,1.047-0.93,1.861
		v0.351h-5.118v-0.351c0-2.093,0.698-3.838,2.211-5.001c1.511-1.163,3.489-1.859,6.165-1.859c2.908,0,5.119,0.58,6.63,1.51
		c1.513,1.048,2.326,2.442,2.326,4.303v11.75c0,0.814,0,1.509,0.234,1.861c0.231,0.464,0.465,0.813,0.929,1.047v0.812h-5.817
		c-0.116-0.348-0.348-0.695-0.465-1.163C90.25,39.775,90.134,39.309,90.134,38.844z"/>
	<path fill="#FFFFFF" d="M104.674,28.839h8.026c0-1.395-0.35-2.443-1.048-3.14c-0.697-0.698-1.745-1.048-3.024-1.048
		c-1.163,0-2.095,0.349-2.792,1.048C105.14,26.396,104.789,27.445,104.674,28.839 M112.585,35.122h5.582
		c-0.581,2.094-1.744,3.838-3.372,5.119c-1.746,1.163-3.723,1.861-6.167,1.861c-3.023,0-5.352-1.049-7.095-3.027
		c-1.744-1.974-2.559-4.767-2.559-8.14c0-3.375,0.815-6.05,2.559-8.026c1.745-1.862,4.072-2.907,6.979-2.907
		c3.258,0,5.584,1.045,7.329,2.907c1.746,1.862,2.561,4.651,2.561,8.141c0,0.467,0,0.699,0,0.932c0,0.116,0,0.35,0,0.582h-13.727
		c0,1.513,0.465,2.793,1.162,3.605c0.697,0.814,1.745,1.28,3.025,1.28c0.931,0,1.745-0.232,2.326-0.581
		C111.77,36.517,112.234,35.819,112.585,35.122z"/>
	<path fill="#FFFFFF" d="M122.005,41.286V20.698h5.003v3.604c0.815-1.396,1.631-2.441,2.56-3.141c0.933-0.697,2.095-0.93,3.491-0.93
		c0.116,0,0.349,0,0.466,0c0.114,0,0.231,0,0.349,0v5.583h-1.86c-1.511,0-2.677,0.35-3.373,1.165
		c-0.813,0.812-1.165,1.976-1.165,3.488v10.819H122.005L122.005,41.286z"/>
	<path fill="#FFFFFF" d="M141.198,31.049c0,1.978,0.467,3.607,1.277,4.653c0.817,1.165,1.981,1.745,3.609,1.745
		c1.514,0,2.674-0.581,3.491-1.745c0.814-1.046,1.277-2.675,1.277-4.653c0-2.094-0.35-3.604-1.277-4.768
		c-0.817-1.046-1.978-1.629-3.491-1.629c-1.628,0-2.792,0.582-3.609,1.629C141.665,27.445,141.198,28.955,141.198,31.049
		 M135.616,31.049c0-3.49,0.929-6.166,2.791-8.026c1.861-1.977,4.419-3.022,7.678-3.022c3.14,0,5.698,1.045,7.56,3.022
		c1.861,1.86,2.792,4.536,2.792,8.026c0,3.374-0.93,6.166-2.792,8.025c-1.861,1.979-4.42,3.027-7.56,3.027
		c-3.259,0-5.816-1.049-7.678-3.027C136.545,37.215,135.616,34.423,135.616,31.049z"/>
	<path fill="#FFFFFF" d="M160.045,41.286V20.698h5.349v2.326c0.698-0.93,1.515-1.628,2.56-2.092c0.932-0.467,1.978-0.7,3.14-0.7
		c1.283,0,2.329,0.233,3.261,0.7c0.927,0.464,1.743,1.278,2.439,2.326c0.699-1.048,1.514-1.861,2.56-2.326
		c0.933-0.467,1.979-0.7,3.259-0.7c2.092,0,3.722,0.582,4.885,1.745c1.28,1.281,1.859,2.908,1.859,5.003v14.307h-5.465V28.143
		c0-1.047-0.233-1.745-0.814-2.327c-0.582-0.581-1.28-0.813-2.21-0.813c-1.047,0-1.978,0.35-2.56,1.047
		c-0.581,0.699-0.932,1.629-0.932,2.792v12.447h-5.467V28.144c0-1.047-0.23-1.745-0.695-2.327c-0.582-0.581-1.282-0.813-2.212-0.813
		c-1.048,0-1.859,0.349-2.56,1.048c-0.58,0.698-0.929,1.628-0.929,2.908v12.33h-5.468V41.286z"/>
	<path fill="#FFFFFF" d="M205.645,31.284c-0.932,0.349-1.978,0.697-3.144,0.93c-1.162,0.232-1.744,0.347-1.744,0.465
		c-1.046,0.232-1.744,0.582-2.092,0.93c-0.353,0.465-0.583,1.048-0.583,1.745c0,0.812,0.233,1.396,0.697,1.861
		c0.583,0.465,1.165,0.697,2.097,0.697c1.395,0,2.558-0.466,3.486-1.278c0.814-0.816,1.282-1.978,1.282-3.491V31.284L205.645,31.284
		z M205.76,38.844c-0.697,1.046-1.629,1.862-2.792,2.442c-1.165,0.583-2.444,0.815-3.955,0.815c-1.978,0-3.49-0.582-4.537-1.744
		c-1.048-1.049-1.627-2.677-1.627-4.77c0-1.977,0.579-3.49,1.627-4.537c1.047-0.93,2.907-1.628,5.35-2.094
		c0.582,0,1.28-0.116,2.21-0.232c2.326-0.347,3.49-1.046,3.49-2.094c0-0.815-0.232-1.396-0.815-1.746
		c-0.464-0.347-1.276-0.582-2.559-0.582c-1.046,0-1.976,0.234-2.559,0.699s-0.813,1.047-0.813,1.861v0.351h-5.234v-0.351
		c0-2.093,0.813-3.838,2.327-5.001c1.395-1.163,3.49-1.859,6.164-1.859c2.794,0,5.003,0.58,6.632,1.51
		c1.512,1.048,2.21,2.442,2.21,4.303v11.75c0,0.814,0.115,1.509,0.348,1.861c0.12,0.464,0.468,0.813,0.814,1.047v0.812h-5.699
		c-0.232-0.348-0.348-0.695-0.467-1.163C205.76,39.775,205.76,39.309,205.76,38.844z"/>
	<path fill="#FFFFFF" d="M215.53,41.286V20.698h5.121v3.604c0.812-1.396,1.625-2.441,2.556-3.141c0.932-0.697,2.096-0.93,3.491-0.93
		c0.114,0,0.352,0,0.466,0c0.116,0,0.233,0,0.233,0l0.116,5.583h-1.861c-1.514,0-2.676,0.35-3.375,1.165
		c-0.812,0.812-1.161,1.976-1.161,3.488v10.819H215.53L215.53,41.286z"/>
	<g>
		<path fill="#FFFFFF" d="M76.872,57.019v-7.33h3.634v0.762H77.68v2.354h2.642v0.745H77.68v2.696h2.856v0.771h-3.664V57.019z"/>
		<path fill="#FFFFFF" d="M86.729,57.019v-6.912l-1.784,6.912h-0.794l-1.711-6.912v6.912h-0.8v-7.33h1.375l1.544,6.249l1.613-6.249
			h1.357v7.33H86.729z"/>
		<path fill="#FFFFFF" d="M88.842,57.019v-7.33h1.88c0.8,0,1.385,0.162,1.751,0.492c0.369,0.328,0.552,0.848,0.552,1.554
			c0,0.727-0.191,1.275-0.575,1.646c-0.383,0.369-0.949,0.557-1.693,0.557h-1.096v3.079h-0.819V57.019z M89.663,53.197h1.076
			c0.495,0,0.859-0.119,1.092-0.354c0.234-0.236,0.351-0.608,0.351-1.117c0-0.467-0.117-0.804-0.353-1.015
			c-0.234-0.209-0.614-0.312-1.143-0.312h-1.024V53.197z"/>
		<path fill="#FFFFFF" d="M94.007,57.019v-7.33h2.057c0.759,0,1.322,0.152,1.69,0.463c0.367,0.31,0.553,0.78,0.553,1.417
			c0,0.492-0.11,0.884-0.333,1.178c-0.223,0.293-0.564,0.498-1.029,0.617c0.408,0.032,0.711,0.167,0.915,0.396
			c0.203,0.229,0.326,0.581,0.37,1.062c0.017,0.178,0.034,0.424,0.055,0.735c0.049,0.801,0.177,1.289,0.384,1.463h-1.015
			c-0.1-0.166-0.165-0.565-0.193-1.194c-0.017-0.311-0.033-0.562-0.05-0.747c-0.042-0.504-0.175-0.85-0.39-1.034
			c-0.22-0.187-0.609-0.277-1.171-0.277h-1.042v3.253H94.007L94.007,57.019z M94.808,53.051h0.994c0.575,0,0.997-0.112,1.264-0.333
			c0.267-0.22,0.403-0.563,0.403-1.03c0-0.447-0.12-0.773-0.357-0.974c-0.238-0.204-0.621-0.306-1.152-0.306h-1.151V53.051z"/>
		<path fill="#FFFFFF" d="M99.701,57.019v-7.33h3.638v0.762h-2.83v2.354h2.642v0.745h-2.642v2.696h2.856v0.771h-3.665V57.019z"/>
		<path fill="#FFFFFF" d="M104.325,54.69h0.78v0.262c0,0.501,0.114,0.875,0.344,1.13c0.228,0.253,0.569,0.382,1.021,0.382
			c0.406,0,0.725-0.123,0.955-0.368c0.231-0.245,0.35-0.579,0.35-1.008c0-0.343-0.074-0.607-0.213-0.792
			c-0.141-0.188-0.46-0.373-0.954-0.562c-0.119-0.043-0.282-0.104-0.496-0.184c-0.595-0.217-0.953-0.378-1.075-0.486
			c-0.204-0.181-0.355-0.396-0.455-0.645c-0.1-0.248-0.15-0.537-0.15-0.868c0-0.638,0.176-1.137,0.529-1.496
			c0.353-0.361,0.843-0.541,1.472-0.541c0.594,0,1.062,0.167,1.4,0.501c0.337,0.33,0.507,0.793,0.507,1.379
			c0,0.019-0.002,0.051-0.005,0.094c-0.003,0.042-0.005,0.072-0.005,0.091h-0.752v-0.077c0-0.41-0.101-0.729-0.303-0.953
			c-0.201-0.226-0.487-0.337-0.856-0.337c-0.38,0-0.679,0.108-0.898,0.324c-0.218,0.212-0.327,0.501-0.327,0.867
			c0,0.345,0.073,0.613,0.222,0.804c0.151,0.19,0.476,0.377,0.976,0.561c0.06,0.022,0.15,0.057,0.267,0.099
			c0.765,0.283,1.221,0.496,1.371,0.636c0.183,0.167,0.314,0.372,0.403,0.613c0.086,0.241,0.132,0.53,0.132,0.867
			c0,0.693-0.191,1.233-0.577,1.622c-0.386,0.387-0.918,0.581-1.605,0.581c-0.681,0-1.198-0.19-1.547-0.57
			c-0.351-0.382-0.525-0.94-0.525-1.681c0-0.027,0.002-0.069,0.005-0.121C104.322,54.758,104.325,54.718,104.325,54.69z"/>
		<path fill="#FFFFFF" d="M109.203,57.019l1.999-7.33h1.044l2.027,7.33h-0.83l-0.556-2.115h-2.323l-0.534,2.115H109.203z
			 M110.751,54.162h1.951l-0.976-3.84L110.751,54.162z"/>
		<path fill="#FFFFFF" d="M117.495,57.019v-7.33h2.076c0.832,0,1.444,0.276,1.837,0.83c0.394,0.558,0.59,1.42,0.59,2.592
			c0,0.825-0.067,1.505-0.2,2.038c-0.136,0.534-0.348,0.961-0.636,1.274c-0.198,0.217-0.42,0.367-0.666,0.459
			c-0.251,0.09-0.619,0.137-1.106,0.137H117.495z M118.315,56.317h1.061c0.344,0,0.607-0.033,0.8-0.104
			c0.189-0.068,0.335-0.182,0.443-0.336c0.172-0.25,0.296-0.564,0.372-0.938c0.075-0.375,0.111-0.9,0.111-1.576
			c0-1.186-0.121-1.974-0.367-2.369c-0.25-0.399-0.71-0.596-1.386-0.596h-1.034V56.317L118.315,56.317z"/>
		<path fill="#FFFFFF" d="M123.169,57.019v-7.33h3.637v0.762h-2.827v2.354h2.641v0.745h-2.641v2.696h2.854v0.771h-3.664V57.019z"/>
		<path fill="#FFFFFF" d="M130.219,54.69h0.782v0.262c0,0.501,0.113,0.875,0.345,1.13c0.231,0.253,0.571,0.382,1.021,0.382
			c0.408,0,0.726-0.123,0.959-0.368c0.23-0.245,0.346-0.579,0.346-1.008c0-0.343-0.071-0.607-0.212-0.792
			c-0.14-0.188-0.459-0.373-0.954-0.562c-0.117-0.043-0.283-0.104-0.496-0.184c-0.592-0.217-0.952-0.378-1.076-0.486
			c-0.2-0.181-0.354-0.396-0.454-0.645c-0.1-0.248-0.146-0.537-0.146-0.868c0-0.638,0.174-1.137,0.524-1.496
			c0.353-0.361,0.841-0.541,1.471-0.541c0.598,0,1.062,0.167,1.403,0.501c0.338,0.33,0.506,0.793,0.506,1.379
			c0,0.019-0.001,0.051-0.005,0.094c-0.003,0.042-0.004,0.072-0.004,0.091h-0.752v-0.077c0-0.41-0.1-0.729-0.303-0.953
			c-0.201-0.226-0.485-0.337-0.855-0.337c-0.379,0-0.683,0.108-0.9,0.324c-0.218,0.212-0.328,0.501-0.328,0.867
			c0,0.345,0.076,0.613,0.223,0.804c0.15,0.19,0.474,0.377,0.974,0.561c0.063,0.022,0.151,0.057,0.268,0.099
			c0.766,0.283,1.225,0.496,1.371,0.636c0.181,0.167,0.315,0.372,0.402,0.613c0.088,0.241,0.134,0.53,0.134,0.867
			c0,0.693-0.194,1.233-0.578,1.622c-0.384,0.387-0.917,0.581-1.604,0.581c-0.683,0-1.197-0.19-1.547-0.57
			c-0.349-0.382-0.525-0.94-0.525-1.681c0-0.027,0.002-0.069,0.004-0.121C130.219,54.758,130.219,54.718,130.219,54.69z"/>
		<path fill="#FFFFFF" d="M135.603,57.019v-7.33h3.637v0.762h-2.828v2.354h2.643v0.745h-2.643v2.696h2.856v0.771h-3.665V57.019z"/>
		<path fill="#FFFFFF" d="M140.382,57.019v-7.33h2.058c0.759,0,1.322,0.152,1.69,0.463c0.365,0.311,0.553,0.78,0.553,1.417
			c0,0.492-0.114,0.884-0.335,1.178c-0.223,0.293-0.567,0.498-1.028,0.617c0.406,0.032,0.712,0.167,0.913,0.396
			c0.203,0.229,0.327,0.581,0.372,1.062c0.016,0.178,0.031,0.424,0.052,0.735c0.051,0.801,0.178,1.289,0.387,1.463h-1.015
			c-0.102-0.166-0.169-0.565-0.195-1.194c-0.017-0.311-0.03-0.562-0.047-0.747c-0.044-0.504-0.176-0.85-0.395-1.034
			c-0.218-0.187-0.606-0.277-1.167-0.277h-1.041v3.253H140.382L140.382,57.019z M141.184,53.051h0.994
			c0.575,0,0.995-0.112,1.263-0.333c0.27-0.22,0.403-0.563,0.403-1.03c0-0.447-0.119-0.773-0.358-0.974
			c-0.235-0.204-0.623-0.306-1.15-0.306h-1.151V53.051z"/>
	</g>
	<g>
		<path fill="#FFFFFF" d="M147.33,57.019l-2.048-7.33h0.893l1.645,6.315l1.694-6.315h0.819l-2.021,7.33H147.33z"/>
		<path fill="#FFFFFF" d="M151.024,57.019v-7.33h0.838v7.33H151.024z"/>
		<path fill="#FFFFFF" d="M156.643,54.33h0.808c-0.01,0.931-0.202,1.641-0.579,2.131c-0.374,0.49-0.917,0.734-1.625,0.734
			c-0.757,0-1.312-0.312-1.678-0.935c-0.367-0.623-0.546-1.585-0.546-2.886c0-1.357,0.179-2.342,0.54-2.951
			c0.361-0.607,0.94-0.912,1.744-0.912c0.669,0,1.186,0.195,1.549,0.585c0.364,0.387,0.546,0.939,0.546,1.658v0.09h-0.79
			c0-0.502-0.118-0.896-0.355-1.181c-0.233-0.287-0.555-0.43-0.959-0.43c-0.5,0-0.857,0.244-1.077,0.726
			c-0.219,0.484-0.329,1.288-0.329,2.412c0,1.099,0.112,1.879,0.339,2.344c0.224,0.465,0.597,0.698,1.113,0.698
			c0.415,0,0.737-0.171,0.958-0.514c0.226-0.341,0.34-0.825,0.34-1.458V54.33H156.643z"/>
		<path fill="#FFFFFF" d="M158.678,57.019v-7.33h0.839v7.33H158.678z"/>
		<path fill="#FFFFFF" d="M160.677,53.354c0-1.363,0.187-2.347,0.553-2.945c0.372-0.596,0.97-0.896,1.797-0.896
			c0.835,0,1.433,0.296,1.802,0.89c0.365,0.59,0.547,1.576,0.547,2.952c0,1.377-0.182,2.362-0.547,2.954
			c-0.363,0.592-0.965,0.888-1.802,0.888c-0.824,0-1.42-0.302-1.794-0.903C160.861,55.688,160.677,54.71,160.677,53.354z
			 M161.528,53.354c0,1.179,0.112,1.994,0.337,2.443c0.222,0.451,0.61,0.674,1.158,0.674c0.561,0,0.948-0.218,1.168-0.657
			c0.221-0.44,0.332-1.26,0.332-2.46c0-1.195-0.111-2.013-0.332-2.45c-0.22-0.439-0.607-0.658-1.168-0.658
			c-0.548,0-0.937,0.225-1.158,0.674C161.641,51.368,161.528,52.18,161.528,53.354z"/>
		<path fill="#FFFFFF" d="M166.38,54.69h0.78v0.262c0,0.501,0.117,0.875,0.347,1.13c0.23,0.253,0.571,0.382,1.021,0.382
			c0.408,0,0.726-0.123,0.956-0.368c0.233-0.245,0.348-0.579,0.348-1.008c0-0.343-0.07-0.607-0.211-0.792
			c-0.14-0.188-0.459-0.373-0.954-0.562c-0.117-0.043-0.283-0.104-0.496-0.184c-0.591-0.217-0.95-0.378-1.075-0.486
			c-0.205-0.181-0.354-0.396-0.455-0.645c-0.098-0.248-0.149-0.537-0.149-0.868c0-0.638,0.176-1.137,0.527-1.496
			c0.353-0.361,0.843-0.541,1.472-0.541c0.596,0,1.063,0.167,1.401,0.501c0.337,0.33,0.507,0.793,0.507,1.379
			c0,0.019,0,0.051-0.006,0.094c-0.002,0.042-0.003,0.072-0.003,0.091h-0.752v-0.077c0-0.41-0.102-0.729-0.302-0.953
			c-0.202-0.226-0.488-0.337-0.856-0.337c-0.379,0-0.68,0.108-0.899,0.324c-0.22,0.212-0.329,0.501-0.329,0.867
			c0,0.345,0.073,0.613,0.223,0.804c0.15,0.19,0.474,0.377,0.975,0.561c0.062,0.022,0.151,0.057,0.268,0.099
			c0.766,0.283,1.223,0.496,1.373,0.636c0.179,0.167,0.314,0.372,0.402,0.613c0.086,0.241,0.133,0.53,0.133,0.867
			c0,0.693-0.195,1.233-0.579,1.622c-0.385,0.387-0.919,0.581-1.604,0.581c-0.683,0-1.197-0.19-1.546-0.57
			c-0.352-0.382-0.523-0.94-0.523-1.681c0-0.027,0.001-0.069,0.002-0.121C166.38,54.758,166.38,54.718,166.38,54.69z"/>
		<path fill="#FFFFFF" d="M174.193,57.019v-7.33h3.385v0.74h-2.547v2.358h2.369v0.762h-2.369v3.468h-0.838V57.019z"/>
		<path fill="#FFFFFF" d="M178.405,57.019v-7.33h0.839v7.33H178.405z"/>
		<path fill="#FFFFFF" d="M180.551,57.019v-7.33h1.096l2.542,6.287l-0.077-6.287h0.789v7.33h-1.047l-2.577-6.474l0.064,6.474
			H180.551z"/>
		<path fill="#FFFFFF" d="M185.702,57.019l2.002-7.33h1.039l2.028,7.33h-0.827l-0.558-2.115h-2.322l-0.534,2.115H185.702z
			 M187.249,54.162h1.952l-0.974-3.84L187.249,54.162z"/>
		<path fill="#FFFFFF" d="M191.566,57.019v-7.33h1.095l2.543,6.287l-0.08-6.287h0.792v7.33h-1.044l-2.583-6.474l0.068,6.474H191.566
			z"/>
		<path fill="#FFFFFF" d="M200.692,54.33h0.808c-0.008,0.931-0.2,1.641-0.578,2.131c-0.375,0.49-0.918,0.734-1.627,0.734
			c-0.754,0-1.314-0.312-1.679-0.935c-0.363-0.623-0.545-1.585-0.545-2.886c0-1.357,0.182-2.342,0.543-2.951
			c0.358-0.607,0.941-0.912,1.744-0.912c0.67,0,1.186,0.195,1.548,0.585c0.361,0.387,0.547,0.939,0.547,1.658v0.09h-0.792
			c0-0.502-0.117-0.896-0.353-1.181c-0.232-0.287-0.555-0.43-0.961-0.43c-0.499,0-0.858,0.244-1.075,0.726
			c-0.22,0.484-0.331,1.288-0.331,2.412c0,1.099,0.114,1.879,0.34,2.344s0.596,0.698,1.113,0.698c0.417,0,0.736-0.171,0.959-0.514
			c0.225-0.341,0.336-0.825,0.336-1.458V54.33H200.692z"/>
		<path fill="#FFFFFF" d="M202.728,57.019v-7.33h0.841v7.33H202.728z"/>
		<path fill="#FFFFFF" d="M204.876,57.019v-7.33h3.638v0.762h-2.827v2.354h2.641v0.745h-2.641v2.696h2.853v0.771h-3.663V57.019z"/>
		<path fill="#FFFFFF" d="M209.655,57.019v-7.33h2.058c0.759,0,1.32,0.152,1.69,0.463c0.366,0.31,0.553,0.78,0.553,1.417
			c0,0.492-0.111,0.884-0.335,1.178c-0.223,0.293-0.565,0.498-1.028,0.617c0.408,0.032,0.709,0.167,0.914,0.396
			c0.203,0.229,0.327,0.581,0.369,1.062c0.018,0.178,0.033,0.424,0.054,0.735c0.052,0.801,0.179,1.289,0.385,1.463h-1.016
			c-0.1-0.166-0.163-0.565-0.193-1.194c-0.016-0.311-0.034-0.562-0.049-0.747c-0.045-0.504-0.175-0.85-0.392-1.034
			c-0.218-0.187-0.608-0.277-1.17-0.277h-1.042v3.253H209.655L209.655,57.019z M210.457,53.051h0.993
			c0.575,0,0.997-0.112,1.265-0.333c0.268-0.22,0.403-0.563,0.403-1.03c0-0.447-0.119-0.773-0.358-0.974
			c-0.239-0.204-0.62-0.306-1.151-0.306h-1.151V53.051z"/>
		<path fill="#FFFFFF" d="M215.202,53.354c0-1.363,0.184-2.347,0.553-2.945c0.369-0.596,0.969-0.896,1.797-0.896
			c0.835,0,1.433,0.296,1.8,0.89c0.367,0.59,0.549,1.576,0.549,2.952c0,1.377-0.182,2.362-0.545,2.954
			c-0.364,0.592-0.966,0.888-1.802,0.888c-0.825,0-1.424-0.302-1.795-0.903C215.386,55.688,215.202,54.71,215.202,53.354z
			 M216.054,53.354c0,1.179,0.112,1.994,0.338,2.443c0.221,0.451,0.609,0.674,1.16,0.674c0.555,0,0.946-0.218,1.167-0.657
			c0.221-0.44,0.327-1.26,0.327-2.46c0-1.195-0.106-2.013-0.327-2.45c-0.221-0.439-0.612-0.658-1.167-0.658
			c-0.551,0-0.939,0.225-1.16,0.674C216.166,51.368,216.054,52.18,216.054,53.354z"/>
		<path fill="#FFFFFF" d="M220.903,54.69h0.782v0.262c0,0.501,0.116,0.875,0.346,1.13c0.229,0.253,0.571,0.382,1.023,0.382
			c0.404,0,0.723-0.123,0.955-0.368c0.23-0.245,0.35-0.579,0.35-1.008c0-0.343-0.073-0.607-0.213-0.792
			c-0.141-0.188-0.46-0.373-0.956-0.562c-0.118-0.043-0.284-0.104-0.492-0.184c-0.597-0.217-0.954-0.378-1.077-0.486
			c-0.203-0.181-0.355-0.396-0.456-0.645c-0.101-0.248-0.15-0.537-0.15-0.868c0-0.638,0.177-1.137,0.529-1.496
			c0.353-0.361,0.843-0.541,1.471-0.541c0.596,0,1.062,0.167,1.402,0.501c0.338,0.33,0.504,0.793,0.504,1.379
			c0,0.019,0,0.051-0.003,0.094c-0.002,0.042-0.006,0.072-0.006,0.091h-0.751v-0.077c0-0.41-0.1-0.729-0.303-0.953
			c-0.199-0.226-0.485-0.337-0.854-0.337c-0.38,0-0.682,0.108-0.899,0.324c-0.219,0.212-0.33,0.501-0.33,0.867
			c0,0.345,0.077,0.613,0.224,0.804c0.15,0.19,0.475,0.377,0.976,0.561c0.062,0.022,0.149,0.057,0.268,0.099
			c0.766,0.283,1.221,0.496,1.37,0.636c0.18,0.167,0.314,0.372,0.402,0.613c0.086,0.241,0.133,0.53,0.133,0.867
			c0,0.693-0.193,1.233-0.578,1.622c-0.384,0.387-0.918,0.581-1.604,0.581c-0.684,0-1.198-0.19-1.548-0.57
			c-0.35-0.382-0.522-0.94-0.522-1.681c0-0.027,0.001-0.069,0.005-0.121C220.903,54.758,220.903,54.718,220.903,54.69z"/>
	</g>
</g>
</svg>
